# Blender v2.91.2 OBJ File: ''
# www.blender.org
mtllib handle0.mtl
o 000008_Handle
v -0.011386 -0.097712 -0.001645
v -0.006322 -0.084245 0.011547
v -0.011386 -0.070778 0.011547
v 0.006324 0.010000 -0.018149
v 0.006324 -0.111203 -0.018149
v -0.011386 -0.097712 -0.018149
v -0.003792 -0.070778 0.018149
v -0.001262 -0.070778 0.018149
v 0.011386 0.010000 0.018149
v -0.011386 0.010000 -0.014845
v -0.011386 -0.064051 0.011547
v -0.001262 0.010000 0.018149
v 0.011386 -0.057311 0.018149
v 0.011386 -0.104452 -0.011544
v 0.011386 0.010000 -0.008243
v 0.011386 -0.090985 -0.018149
v -0.011386 0.010000 -0.018149
v -0.011386 -0.003467 -0.001645
v 0.001264 -0.111203 -0.014845
v 0.001264 -0.084245 0.011547
v 0.003794 -0.077518 0.014848
vn -0.7601 -0.2858 0.5836
vn 0.0000 0.0000 -1.0000
vn 0.0000 0.0000 1.0000
vn 0.0000 1.0000 0.0000
vn -1.0000 0.0000 0.0000
vn -0.6457 0.0202 0.7633
vn 1.0000 0.0000 0.0000
vn 0.8693 -0.2176 -0.4438
vn 0.8896 0.0446 -0.4546
vn -0.9188 0.2763 0.2819
vn -0.9099 0.0883 0.4053
vn -0.4442 -0.5831 -0.6802
vn 0.3450 -0.7757 0.5284
vn -0.7295 -0.6840 0.0000
vn 0.2274 -0.6812 0.6958
vn 0.0000 -0.4398 0.8981
vn 0.2694 -0.2530 0.9292
vn 0.7243 -0.3674 0.5834
vn 0.5075 -0.5258 0.6826
vn 0.0000 -0.4405 0.8977
vn -0.0006 -0.6997 0.7145
vn 0.0000 -0.6996 0.7146
vn -0.0003 -0.4401 0.8979
vn -0.6561 0.0000 0.7547
vn -0.6370 -0.2395 0.7327
usemtl None
s off
f 1//1 2//1 3//1
f 4//2 5//2 6//2
f 7//3 8//3 9//3
f 4//4 10//4 9//4
f 10//5 6//5 11//5
f 7//3 9//3 12//3
f 9//4 10//4 12//4
f 11//6 7//6 12//6
f 9//3 8//3 13//3
f 14//7 9//7 13//7
f 11//5 6//5 1//5
f 4//4 9//4 15//4
f 9//7 14//7 15//7
f 15//7 14//7 16//7
f 5//2 4//2 16//2
f 14//8 5//8 16//8
f 4//9 15//9 16//9
f 4//2 6//2 17//2
f 6//5 10//5 17//5
f 10//4 4//4 17//4
f 10//5 11//5 18//5
f 12//10 10//10 18//10
f 11//11 12//11 18//11
f 6//12 5//12 19//12
f 5//13 14//13 19//13
f 1//14 6//14 19//14
f 14//15 20//15 19//15
f 8//16 7//16 21//16
f 13//17 8//17 21//17
f 14//18 13//18 21//18
f 20//19 14//19 21//19
f 20//20 21//20 2//20
f 1//21 19//21 2//21
f 19//22 20//22 2//22
f 21//23 7//23 2//23
f 7//24 11//24 3//24
f 11//5 1//5 3//5
f 2//25 7//25 3//25
