# Blender v2.91.2 OBJ File: ''
# www.blender.org
mtllib head0.mtl
o 000008_Head_000008_Head.001
v -0.047378 0.004989 0.011008
v -0.054141 -0.010000 -0.019827
v -0.040605 -0.010000 0.011008
v -0.020305 0.019968 -0.019827
v -0.020305 -0.010000 -0.019827
v 0.054141 -0.010000 0.011008
v 0.054141 0.012481 -0.002201
v 0.047357 0.012481 0.015414
v -0.027068 -0.010000 0.019827
v -0.006768 0.027465 0.006603
v -0.040605 0.012481 0.015414
v -0.040605 -0.002508 0.015414
v 0.033820 -0.010000 -0.011012
v 0.047357 0.019968 0.006603
v -0.040605 0.034966 -0.015418
v -0.054141 0.019968 -0.019827
v -0.054141 0.019968 -0.006607
v 0.054141 -0.010000 -0.002201
v -0.040605 0.034966 -0.011012
v -0.033842 0.034966 -0.015418
v 0.047357 -0.002508 0.015414
v -0.020305 -0.002508 0.019827
v 0.047357 0.004989 -0.006607
vn -0.8461 -0.3823 0.3714
vn 0.0000 0.0000 -1.0000
vn 0.0000 -1.0000 0.0000
vn 0.9131 0.2066 0.3516
vn 0.0000 0.5069 0.8620
vn -0.3099 0.0000 0.9508
vn 0.1607 0.0000 -0.9870
vn 0.8595 0.3895 0.3310
vn 0.1050 0.7578 0.6440
vn 0.0000 0.2820 -0.9594
vn -1.0000 0.0000 0.0000
vn -0.7424 0.6700 0.0000
vn 1.0000 0.0000 0.0000
vn -0.1662 0.7510 0.6390
vn -0.5348 0.6435 0.5476
vn -0.5453 0.0000 0.8382
vn -0.9565 -0.1178 0.2670
vn -0.7464 0.3375 0.5736
vn 0.2478 0.4723 -0.8459
vn 0.1353 0.9767 0.1664
vn 0.2842 0.8273 -0.4845
vn 0.1202 0.9755 0.1845
vn 0.0000 1.0000 0.0000
vn 0.5447 0.0000 0.8386
vn 0.0971 -0.4378 0.8938
vn 0.0650 -0.0586 0.9962
vn 0.0000 0.2824 0.9593
vn -0.1285 0.1160 0.9849
vn 0.0651 0.0000 0.9979
vn 0.2485 0.3139 -0.9164
vn 0.2111 0.0952 -0.9728
vn 0.5447 0.0000 -0.8386
vn 0.3962 -0.0893 -0.9138
vn -0.4896 -0.4420 0.7516
vn -0.7465 -0.3373 0.5736
usemtl None
s off
f 1//1 2//1 3//1
f 4//2 5//2 2//2
f 5//3 6//3 2//3
f 6//4 7//4 8//4
f 2//3 6//3 9//3
f 8//5 10//5 11//5
f 12//6 9//6 11//6
f 5//7 4//7 13//7
f 6//3 5//3 13//3
f 8//8 7//8 14//8
f 10//9 8//9 14//9
f 15//10 4//10 16//10
f 4//2 2//2 16//2
f 2//11 17//11 16//11
f 17//12 15//12 16//12
f 7//13 6//13 18//13
f 6//3 13//3 18//3
f 11//14 10//14 19//14
f 15//12 17//12 19//12
f 17//15 11//15 19//15
f 12//16 11//16 1//16
f 17//17 2//17 1//17
f 11//18 17//18 1//18
f 7//19 4//19 20//19
f 4//10 15//10 20//10
f 10//20 14//20 20//20
f 14//21 7//21 20//21
f 19//22 10//22 20//22
f 15//23 19//23 20//23
f 6//24 8//24 21//24
f 9//25 6//25 21//25
f 9//26 21//26 22//26
f 8//27 11//27 22//27
f 11//28 9//28 22//28
f 21//29 8//29 22//29
f 4//30 7//30 23//30
f 13//31 4//31 23//31
f 7//32 18//32 23//32
f 18//33 13//33 23//33
f 9//34 12//34 3//34
f 2//3 9//3 3//3
f 12//35 1//35 3//35
